<?xml version="1.0" encoding="UTF-8" standalone="no"?>
<!-- Created with Inkscape (http://www.inkscape.org/) -->

<svg
   xmlns:dc="http://purl.org/dc/elements/1.1/"
   xmlns:cc="http://creativecommons.org/ns#"
   xmlns:rdf="http://www.w3.org/1999/02/22-rdf-syntax-ns#"
   xmlns:svg="http://www.w3.org/2000/svg"
   xmlns="http://www.w3.org/2000/svg"
   xmlns:sodipodi="http://sodipodi.sourceforge.net/DTD/sodipodi-0.dtd"
   xmlns:inkscape="http://www.inkscape.org/namespaces/inkscape"
   version="1.1"
   id="svg3799"
   width="1525"
   height="655"
   viewBox="0 0 1525 655"
   sodipodi:docname="chat_client_layout_1.svg"
   inkscape:version="0.92.5 (2060ec1f9f, 2020-04-08)">
  <metadata
     id="metadata3805">
    <rdf:RDF>
      <cc:Work
         rdf:about="">
        <dc:format>image/svg+xml</dc:format>
        <dc:type
           rdf:resource="http://purl.org/dc/dcmitype/StillImage" />
        <dc:title></dc:title>
      </cc:Work>
    </rdf:RDF>
  </metadata>
  <defs
     id="defs3803" />
  <sodipodi:namedview
     pagecolor="#ffffff"
     bordercolor="#666666"
     borderopacity="1"
     objecttolerance="10"
     gridtolerance="10"
     guidetolerance="10"
     inkscape:pageopacity="0"
     inkscape:pageshadow="2"
     inkscape:window-width="2560"
     inkscape:window-height="1413"
     id="namedview3801"
     showgrid="false"
     inkscape:zoom="0.78"
     inkscape:cx="630.98113"
     inkscape:cy="268.4205"
     inkscape:window-x="0"
     inkscape:window-y="27"
     inkscape:window-maximized="0"
     inkscape:current-layer="svg3799" />
  <path
     style="fill:#000000"
     d="M 18.568986,321.21145 V 9.2114509 H 762.06899 1505.5689 v 311.9999991 312 H 762.06899 18.568986 Z m 1482.999914,0 V 13.211451 H 762.06899 22.568986 v 307.999999 308 H 762.06899 1501.5689 Z M 486.23932,557.54844 c -0.36868,-0.36868 -0.67033,-18.59532 -0.67033,-40.50366 v -39.83333 h 133.01134 133.01136 l -0.2614,40.25 -0.2613,40.25 -132.07967,0.25366 c -72.64382,0.13952 -132.38132,-0.048 -132.75,-0.41667 z m 261.32967,-39.83699 v -36.5 h -129 -129 v 36.5 36.5 h 129 129 z m -131.8,13.3 c -1.6243,-1.6243 -1.51255,-4.29571 0.24056,-5.75067 0.79231,-0.65756 1.19196,-1.84339 0.88812,-2.63518 -0.30384,-0.79179 -0.0465,-2.04918 0.57178,-2.79421 0.8495,-1.02359 0.75466,-1.66127 -0.38813,-2.60971 -2.05999,-1.70964 -1.90355,-5.3462 0.31641,-7.35524 2.03882,-1.84511 13.17126,-2.39871 13.17126,-0.65499 0,0.55 -0.6126,1 -1.36133,1 -0.91787,0 -1.20347,0.82579 -0.87672,2.53504 0.63665,3.33042 -2.23218,6.46496 -5.91694,6.46496 -4.49729,0 -3.5341,2.64424 1.19421,3.27843 6.81804,0.9145 8.75419,3.92816 4.96078,7.72157 -2.29476,2.29476 -10.77522,2.82478 -12.8,0.8 z m 10.35887,-2.281 c 1.68015,-1.28188 1.73946,-1.61594 0.44113,-2.48468 -2.90259,-1.9422 -9,-0.93319 -9,1.48934 0,2.61735 5.58206,3.26652 8.55887,0.99534 z m -1.183,-13.75024 c 0.83869,-1.3318 0.70827,-2.11319 -0.56528,-3.38674 -2.99571,-2.99571 -7.46512,0.91947 -4.76443,4.1736 1.55489,1.87353 3.86955,1.53181 5.32971,-0.78686 z m -42.37587,-0.76876 c 0,-9.11111 0.25758,-11 1.5,-11 1.22746,0 1.5,1.71613 1.5,9.44521 v 9.44521 l 4.67183,0.30479 c 2.61107,0.17035 4.85335,0.85617 5.08333,1.55479 0.30125,0.91509 -1.35236,1.25 -6.17183,1.25 h -6.58333 z m 17,9 c -1.40741,-1.40741 -2,-3.33333 -2,-6.5 0,-5.61807 2.51827,-8.5 7.42742,-8.5 2.51163,0 3.9812,0.70402 5.5,2.63486 4.45574,5.66455 1.12453,14.36514 -5.5,14.36514 -2.09409,0 -4.20546,-0.77804 -5.42742,-2 z m 7.83219,-1.59502 c 1.77403,-1.24258 2.20988,-2.37745 1.97251,-5.13604 -0.36696,-4.26458 -3.19359,-6.50962 -6.5547,-5.20604 -1.86892,0.72485 -2.25,1.63186 -2.25,5.35519 0,3.21411 0.4952,4.77095 1.75,5.50181 2.31593,1.3489 2.43902,1.33643 5.08219,-0.51492 z m 26.16781,-4.90498 c 0,-6.88889 0.28431,-8.5 1.5,-8.5 1.21569,0 1.5,1.61111 1.5,8.5 0,6.88889 -0.28431,8.5 -1.5,8.5 -1.21569,0 -1.5,-1.61111 -1.5,-8.5 z m 8,0 c 0,-5 0.41176,-8.5 1,-8.5 0.55,0 1,0.54 1,1.2 0,0.93333 0.26667,0.93333 1.2,0 1.82153,-1.82153 7.26632,-1.44719 9.14501,0.62874 2.27295,2.51158 2.40228,15.17126 0.15499,15.17126 -1.17865,0 -1.5,-1.38498 -1.5,-6.46482 0,-5.44136 -0.31662,-6.63426 -2,-7.53518 -1.42099,-0.76049 -2.57901,-0.76049 -4,0 -1.68338,0.90092 -2,2.09382 -2,7.53518 0,5.07984 -0.32135,6.46482 -1.5,6.46482 -1.21569,0 -1.5,-1.61111 -1.5,-8.5 z m -7.36052,-10.19385 c -1.19516,-1.19516 -0.64571,-3.30615 0.86052,-3.30615 0.825,0 1.5,0.64844 1.5,1.44098 0,1.67065 -1.42728,2.79841 -2.36052,1.86517 z m 139.03082,51.03084 c -0.3686,-0.36868 -0.6703,-18.59532 -0.6703,-40.50366 v -39.83333 h 133.0113 133.01141 l -0.2614,40.25 -0.2613,40.25 -132.07971,0.25366 c -72.6438,0.13952 -132.3813,-0.048 -132.75,-0.41667 z M 1034.569,517.71145 v -36.5 h -129.00001 -129 v 36.5 36.5 h 129 129.00001 z m -149.42861,12.92857 c -1.9177,-1.91776 -1.9408,-2.44555 -0.2169,-4.95606 1.7306,-2.5203 2.6385,-7.35882 1.5114,-8.05539 -1.7383,-1.07432 -0.9441,-7.30488 1.0684,-8.38194 2.4774,-1.32589 12.0657,-1.35385 12.0657,-0.0352 0,0.55 -0.45,1 -1,1 -0.55,0 -1,1.54844 -1,3.44098 0,3.75317 -0.7874,4.56361 -5.3379,5.4943 -3.7456,0.76605 -4.7916,3.06472 -1.3947,3.06472 1.3388,0 3.8513,0.49402 5.5834,1.09783 3.6616,1.27645 4.2641,4.58321 1.3205,7.24718 -2.4013,2.17309 -10.4569,2.22652 -12.5999,0.0836 z m 11.176,-1.84268 c 1.4473,-1.44726 -0.9941,-3.58589 -4.0936,-3.58589 -4.0268,0 -6.8955,2.57049 -4.5895,4.11247 1.3652,0.91287 7.6232,0.53336 8.6831,-0.52658 z m -2.2474,-15.09959 c 0,-2.51872 -0.3914,-2.9863 -2.5,-2.9863 -1.8741,0 -2.5845,0.59754 -2.8375,2.38691 -0.3596,2.54325 1.3719,4.27953 3.8375,3.84814 0.9399,-0.16444 1.5,-1.37756 1.5,-3.24875 z m -43.8053,0.76463 0.1947,-10.75093 4.6418,-0.30832 c 5.9949,-0.3982 9.4688,1.72692 9.4688,5.79242 0,1.68687 -0.8848,3.76229 -2.0777,4.87369 l -2.0778,1.9357 2.65,4.19773 c 1.4574,2.30876 2.4118,4.43582 2.1208,4.7268 -1.1911,1.19116 -3.6472,-0.86017 -5.5904,-4.6693 -1.3635,-2.67263 -2.7384,-4.04872 -4.0452,-4.04872 -1.6796,0 -1.9797,0.68207 -1.9797,4.5 0,3.6187 -0.3427,4.50018 -1.75,4.50093 -1.5703,8.3e-4 -1.73,-1.10322 -1.5553,-10.75 z m 10.7606,-3.11005 c 1.0448,-3.29196 -0.4162,-5.14088 -4.0623,-5.14088 -3.211,0 -3.393,0.18769 -3.393,3.5 0,3.32025 0.1763,3.5 3.4326,3.5 2.4677,0 3.5985,-0.52263 4.0227,-1.85912 z m 9.4662,11.99659 c -1.9104,-1.54686 -2.4215,-2.90716 -2.4215,-6.44413 0,-5.64692 2.4819,-8.69334 7.0824,-8.69334 3.5683,0 7.4176,3.70261 7.4176,7.13486 0,1.61183 -0.8105,1.86514 -5.9678,1.86514 -5.7671,0 -5.9399,0.0756 -5.1408,2.25 0.671,1.82558 1.7145,2.30799 5.532,2.55741 5.8034,0.37918 5.7454,2.5562 -0.08,2.99171 -2.8182,0.2107 -4.7166,-0.28047 -6.4223,-1.66165 z m 8.0785,-9.51503 c 0,-2.47076 -2.6342,-3.88855 -4.9361,-2.65665 -3.3675,1.80227 -2.573,4.03421 1.4361,4.03421 2.3062,0 3.5,-0.46987 3.5,-1.37756 z m 24,2.87756 c 0,-6.88889 0.2843,-8.5 1.5,-8.5 1.2157,0 1.5,1.61111 1.5,8.5 0,6.88889 -0.2843,8.5 -1.5,8.5 -1.2157,0 -1.5,-1.61111 -1.5,-8.5 z m 7.6667,7.83333 c -1.5766,-1.5766 -0.4498,-2.53996 2.3224,-1.98552 6.3039,1.26078 8.3676,-2.46519 2.6813,-4.84106 -4.3064,-1.79933 -5.9966,-3.90349 -5.1864,-6.45644 0.7147,-2.25174 3.8343,-3.38462 7.9263,-2.87839 3.2994,0.40819 2.984,2.28684 -0.4103,2.44337 -4.6682,0.21528 -5.167,0.38358 -4.7596,1.60591 0.2239,0.67165 2.1739,2.13618 4.3333,3.25451 4.1743,2.16176 5.5544,5.46005 3.3806,8.07933 -1.2127,1.46122 -9.0145,2.05144 -10.2876,0.77829 z m 16.3685,-1.26759 c -0.5694,-1.06384 -1.0352,-4.40134 -1.0352,-7.41667 0,-3.476 -0.4542,-5.6338 -1.2411,-5.89609 -0.8923,-0.29746 -0.7519,-0.90288 0.5,-2.15477 0.9576,-0.95759 1.7411,-2.15892 1.7411,-2.66964 0,-0.51071 0.45,-0.92857 1,-0.92857 0.55,0 1,0.9 1,2 0,1.46667 0.6667,2 2.5,2 1.375,0 2.5,0.45 2.5,1 0,0.55 -1.125,1 -2.5,1 -2.3838,0 -2.5,0.2738 -2.5,5.89301 0,4.46437 0.3855,6.04095 1.5902,6.50325 0.8747,0.33562 1.9997,0.35721 2.5,0.048 0.5004,-0.30925 0.9098,0.13929 0.9098,0.99675 0,2.3622 -5.6631,2.05709 -6.9648,-0.37524 z m 11.0769,-0.65038 c -4.4299,-5.63166 -1.1971,-14.41536 5.3055,-14.41536 3.8994,0 6.5824,2.5796 6.5824,6.32874 0,2.57122 -0.206,2.67126 -5.5,2.67126 -5.7936,0 -6.3445,0.46287 -4.1395,3.47827 0.997,1.36352 2.4881,1.81634 5.582,1.69512 5.9203,-0.23199 4.8334,2.23231 -1.1586,2.62682 -3.9417,0.25953 -4.846,-0.0637 -6.6718,-2.38485 z m 8.8879,-8.79292 c 0,-0.75765 -0.6727,-1.93588 -1.495,-2.61829 -1.2047,-0.99985 -1.9813,-0.92208 -4,0.40061 -3.6045,2.36175 -3.0916,3.59524 1.495,3.59524 2.7309,0 4,-0.43707 4,-1.37756 z m 7,2.87756 c 0,-6.88889 0.2843,-8.5 1.5,-8.5 0.825,0 1.5,0.54 1.5,1.2 0,0.93333 0.2667,0.93333 1.2,0 1.7253,-1.72526 5.8,-1.51449 5.8,0.3 0,0.92762 -0.9405,1.5 -2.4648,1.5 -3.2054,0 -4.5352,2.61965 -4.5352,8.93426 0,3.83621 -0.3641,5.06574 -1.5,5.06574 -1.2157,0 -1.5,-1.61111 -1.5,-8.5 z m -50.5238,-10.53857 c -1.008,-1.63093 1.231,-3.65425 2.5662,-2.31905 0.7232,0.72318 0.5973,1.41175 -0.411,2.24856 -1.0742,0.89152 -1.6364,0.90991 -2.1552,0.0705 z m -417.23754,-135.21143 0.26134,-40.25 h 276 276.00001 l 0.2613,40.25 0.2614,40.25 H 762.06899 485.5463 Z m 548.76135,-0.25 v -36.5 h -272.50001 -272.5 v 36.5 36.5 h 272.5 272.50001 z m -340.00001,3.5 c 0,-10 0.25,-12 1.5,-12 0.825,0 1.5,0.54 1.5,1.2 0,0.93333 0.2667,0.93333 1.2,0 1.8514,-1.85143 6.5783,-1.42172 8.8,0.8 2.8272,2.82722 2.7616,10.23838 -0.1161,13.1161 -1.6719,1.67194 -2.9313,2.00675 -6,1.59515 l -3.8839,-0.52094 v 3.90485 c 0,2.8043 -0.4228,3.90484 -1.5,3.90484 -1.25,0 -1.5,-2 -1.5,-12 z m 10.1713,1.34501 c 2.2752,-2.0591 2.4021,-7.62876 0.2233,-9.80753 -1.6864,-1.68647 -5.2611,-1.22959 -6.6293,0.8473 -1.4004,2.12583 -0.7557,6.62484 1.2347,8.61522 2.4253,2.42532 2.8418,2.45311 5.1713,0.34501 z m 9.0287,2.45499 c -3.4739,-3.47388 0.2355,-8.8 6.1287,-8.8 2.4517,0 3.6713,-0.45763 3.6713,-1.37756 0,-2.36172 -2.5417,-3.6641 -5.8568,-3.00107 -3.2645,0.65288 -4.4675,-0.89921 -1.5614,-2.01438 3.4055,-1.30683 7.3136,-0.59436 8.8615,1.61552 2.1531,3.07403 2.198,14.77749 0.057,14.77749 -0.825,0 -1.5,-0.54 -1.5,-1.2 0,-0.93333 -0.2667,-0.93333 -1.2,0 -0.66,0.66 -2.595,1.2 -4.3,1.2 -1.705,0 -3.64,-0.54 -4.3,-1.2 z m 7.8,-2.8 c 1.1,-1.1 2,-2.45 2,-3 0,-1.10381 -3.9376,-1.34492 -6.4182,-0.39301 -1.8806,0.72167 -2.1115,4.01262 -0.3318,4.73073 2.1542,0.86924 2.6955,0.7168 4.75,-1.33772 z m 8.6667,3.33333 c -1.5766,-1.5766 -0.4498,-2.53996 2.3224,-1.98552 6.3039,1.26078 8.3676,-2.46519 2.6813,-4.84106 -4.3064,-1.79933 -5.9966,-3.90349 -5.1864,-6.45644 0.7147,-2.25174 3.8343,-3.38462 7.9263,-2.87839 3.3041,0.40876 2.9824,2.29862 -0.4103,2.41057 -4.4485,0.14679 -5.1737,0.39647 -4.7596,1.63871 0.2239,0.67165 2.1739,2.13618 4.3333,3.25451 4.1743,2.16176 5.5544,5.46005 3.3806,8.07933 -1.2127,1.46122 -9.0145,2.05144 -10.2876,0.77829 z m 15,0 c -1.4533,-1.45327 -0.5285,-2.45048 2.0833,-2.2465 7.6683,0.59888 8.5693,-1.96729 1.75,-4.98381 -3.5554,-1.57273 -4.5,-2.50142 -4.5,-4.42434 0,-3.43068 2.1963,-4.85077 6.9437,-4.48979 4.3844,0.33337 5.2121,2.23475 1.0563,2.4264 -4.5108,0.20802 -5,0.3705 -5,1.66059 0,0.70173 1.9125,2.16423 4.25,3.25 4.6998,2.18303 5.9242,5.15704 3.2318,7.84947 -1.6053,1.60529 -8.4953,2.27777 -9.8151,0.95798 z m 16.8915,-0.50942 c -0.2397,-0.72815 -1.3,-4.58641 -2.3561,-8.57391 -1.7762,-6.70565 -1.7938,-7.25 -0.2351,-7.25 1.239,0 2.0863,1.65491 3.1998,6.25 l 1.5145,6.25 1.9094,-6.24861 c 2.5924,-8.48405 4.7701,-8.52028 7.1061,-0.11823 1.8352,6.60097 2.1998,6.4415 4.3053,-1.88316 0.6957,-2.75046 1.6318,-4.25 2.6531,-4.25 1.156,0 1.41,0.60171 0.9496,2.25 -0.3456,1.2375 -1.3528,5.0625 -2.2382,8.5 -1.2422,4.82302 -2.0305,6.25 -3.4524,6.25 -1.3958,0 -2.2924,-1.51559 -3.6973,-6.25 l -1.8547,-6.25 -2.014,6 c -1.9411,5.78312 -4.7797,8.39317 -5.79,5.32391 z m 23.6161,-1.13836 c -1.4837,-1.57936 -2.1743,-3.58394 -2.1743,-6.31144 0,-5.23211 2.8287,-8.37411 7.539,-8.37411 4.9449,0 7.461,2.86643 7.461,8.5 0,3.16667 -0.5926,5.09259 -2,6.5 -2.7854,2.78541 -8.0574,2.63227 -10.8257,-0.31445 z m 9.0604,-2.11261 c 1.01,-1.47508 0.9246,-6.77314 -0.1363,-8.44794 -0.479,-0.75625 -2.0983,-1.375 -3.5984,-1.375 -1.5001,0 -3.1194,0.61875 -3.5984,1.375 -1.0609,1.6749 -1.146,6.96324 -0.1363,8.47506 1.5905,2.38141 5.8307,2.36602 7.4694,-0.0271 z m 7.7653,-4.07294 c 0,-6.88889 0.2843,-8.5 1.5,-8.5 0.825,0 1.5,0.46583 1.5,1.03518 0,0.71358 0.6009,0.71358 1.9343,0 2.776,-1.48571 5.0657,-1.27561 5.0657,0.46482 0,0.90589 -0.9266,1.5 -2.3395,1.5 -2.9452,0 -4.6605,3.51375 -4.6605,9.54705 0,3.29151 -0.3912,4.45295 -1.5,4.45295 -1.2157,0 -1.5,-1.61111 -1.5,-8.5 z m 15.3965,7.71154 c -1.7318,-1.12319 -3.3965,-4.84753 -3.3965,-7.59875 0,-6.21994 3.9184,-9.60303 9.5,-8.20215 2.3119,0.58026 2.5,0.36272 2.5,-2.89159 0,-2.46138 0.4508,-3.51905 1.5,-3.51905 1.245,0 1.5,1.92481 1.5,11.32332 v 11.32333 l -5.2532,0.13821 c -2.8893,0.076 -5.7469,-0.18198 -6.3503,-0.57332 z m 7.8382,-3.6386 c 2.3021,-3.36197 -0.2551,-10.57294 -3.7494,-10.57294 -1.9825,0 -4.4853,3.99851 -4.4853,7.1658 0,4.60853 5.7757,6.99825 8.2347,3.40714 z M 485.56899,253.21145 v -40 h 276.5 276.50001 v 40 40 h -276.50001 -276.5 z m 549.00001,0 v -36 h -272.50001 -272.5 v 36 36 h 272.5 272.50001 z m -279.47681,13.02562 c -1.6046,-1.77307 -1.6362,-2.2064 -0.3094,-4.25 1.8512,-2.85159 2.7996,-7.64933 1.6521,-8.3585 -1.7383,-1.07432 -0.9441,-7.30488 1.0684,-8.38194 2.4774,-1.32589 12.0657,-1.35385 12.0657,-0.0352 0,0.55 -0.45,1 -1,1 -0.55,0 -1,1.54844 -1,3.44098 0,3.75317 -0.7874,4.56361 -5.3379,5.4943 -3.7456,0.76605 -4.7916,3.06472 -1.3947,3.06472 1.3388,0 3.8513,0.49402 5.5834,1.09783 3.6616,1.27645 4.2641,4.58321 1.3205,7.24718 -2.6649,2.4117 -10.3522,2.21758 -12.6481,-0.31939 z m 11.2242,-1.43973 c 1.4473,-1.44726 -0.9941,-3.58589 -4.0936,-3.58589 -4.0268,0 -6.8955,2.57049 -4.5895,4.11247 1.3652,0.91287 7.6232,0.53336 8.6831,-0.52658 z m -2.9099,-12.46429 c 0.7356,-0.46628 1.1856,-1.92189 1,-3.23469 -0.253,-1.78937 -0.9633,-2.38691 -2.8375,-2.38691 -1.8741,0 -2.5845,0.59754 -2.8375,2.38691 -0.2885,2.0408 1.1305,4.08246 2.8375,4.08246 0.275,0 1.1019,-0.3815 1.8375,-0.84777 z m -33.8375,-2.6216 c 0,-9.55556 0.2536,-11.5 1.5,-11.5 1.2464,0 1.5,1.94444 1.5,11.5 0,9.55556 -0.2536,11.5 -1.5,11.5 -1.2464,0 -1.5,-1.94444 -1.5,-11.5 z m 9.1743,9.18555 c -1.4837,-1.57936 -2.1743,-3.58394 -2.1743,-6.31144 0,-5.23211 2.8287,-8.37411 7.539,-8.37411 4.9449,0 7.461,2.86643 7.461,8.5 0,3.16667 -0.5926,5.09259 -2,6.5 -2.7854,2.78541 -8.0574,2.63227 -10.8257,-0.31445 z m 8.2543,-1.25698 c 1.6959,-1.69594 2.083,-7.07251 0.6698,-9.30357 -0.479,-0.75625 -2.0983,-1.375 -3.5984,-1.375 -3.209,0 -4.4694,1.62148 -4.4694,5.75 0,3.39723 0.7957,4.94366 2.9694,5.77111 2.3666,0.90087 2.76,0.82602 4.4286,-0.84254 z m 25.5714,-4.92857 c 0,-6.88889 0.2843,-8.5 1.5,-8.5 1.2157,0 1.5,1.61111 1.5,8.5 0,6.88889 -0.2843,8.5 -1.5,8.5 -1.2157,0 -1.5,-1.61111 -1.5,-8.5 z m 8,0 c 0,-6.88889 0.2843,-8.5 1.5,-8.5 0.825,0 1.5,0.54 1.5,1.2 0,0.93333 0.2667,0.93333 1.2,0 1.5755,-1.57545 7.2722,-1.54229 8.5882,0.05 0.5683,0.6875 1.1859,4.51351 1.3725,8.50225 0.298,6.37017 0.1265,7.25198 -1.4107,7.25 -1.4972,-0.002 -1.75,-0.99801 -1.75,-6.89526 0,-7.73104 -1.408,-9.38011 -5.6409,-6.60662 -2.0432,1.33879 -2.3591,2.34595 -2.3591,7.52268 0,4.64618 -0.334,5.97695 -1.5,5.97695 -1.2157,0 -1.5,-1.61111 -1.5,-8.5 z m -7.3605,-10.19385 c -1.1952,-1.19516 -0.6457,-3.30615 0.8605,-3.30615 0.825,0 1.5,0.64844 1.5,1.44098 0,1.67065 -1.4273,2.79841 -2.3605,1.86517 z M 485.56899,111.71145 V 40.211451 h 276.5 276.50001 v 71.499999 71.5 h -276.50001 -276.5 z m 549.00001,0 V 44.211451 h -272.50001 -272.5 v 67.499999 67.5 h 272.5 272.50001 z m -273.47681,12.52562 c -1.6046,-1.77307 -1.6362,-2.2064 -0.3094,-4.25 1.8512,-2.85159 2.7996,-7.64933 1.6521,-8.3585 -1.7383,-1.07432 -0.9441,-7.30488 1.0684,-8.38194 2.4774,-1.32589 12.0657,-1.35385 12.0657,-0.0352 0,0.55 -0.45,1 -1,1 -0.55,0 -1,1.54844 -1,3.44098 0,3.75317 -0.7874,4.56361 -5.3379,5.4943 -4.8304,0.98791 -4.1267,2.61776 1.5666,3.6287 4.4277,0.78623 5.3242,1.30929 5.6017,3.26849 0.5389,3.8053 -2.4602,6.16753 -7.8304,6.16753 -3.3997,0 -5.1816,-0.54317 -6.4768,-1.97438 z m 10.3725,-0.94001 c 2.4573,-1.55595 0.4501,-4.08561 -3.2419,-4.08561 -3.9979,0 -6.9205,2.58593 -4.5895,4.0609 1.8296,1.15775 6.0211,1.17097 7.8314,0.0247 z m -1.3957,-15.59931 c 0,-2.51872 -0.3914,-2.9863 -2.5,-2.9863 -1.8741,0 -2.5845,0.59754 -2.8375,2.38691 -0.3596,2.54325 1.3719,4.27953 3.8375,3.84814 0.9399,-0.16444 1.5,-1.37756 1.5,-3.24875 z m -99.5,0.5137 c 0,-10.814988 0.0387,-10.999998 2.30246,-10.999998 1.87333,0 2.65112,0.97846 4.17324,5.249998 1.02894,2.8875 2.52513,6.825 3.32486,8.75 l 1.45407,3.5 3.23046,-8.5 c 2.52783,-6.651228 3.69639,-8.569498 5.37268,-8.819548 2.07987,-0.31025 2.14223,0.003 2.14223,10.749998 0,9.17293 -0.257,11.06955 -1.5,11.06955 -1.20623,0 -1.51428,-1.61573 -1.5729,-8.25 l -0.0729,-8.25 -3.17711,8.2605 c -2.17138,5.64562 -3.64124,8.17577 -4.64335,7.99281 -0.81141,-0.14814 -2.82113,-3.83731 -4.5,-8.2605 l -3.03374,-7.99281 -0.29044,8.25 c -0.22646,6.43241 -0.61201,8.25 -1.75,8.25 -1.19095,0 -1.45956,-2.02435 -1.45956,-11 z m 29.7894,9.96757 c -4.1497,-2.48132 -3.9788,-12.72549 0.25,-14.98868 4.8308,-2.58535 10.9606,0.50238 10.9606,5.52111 0,2.36742 -0.2954,2.5 -5.5695,2.5 -5.2039,0 -5.5486,0.14774 -5.25,2.25 0.2734,1.92519 1.0145,2.29438 5.1337,2.55741 3.1764,0.20283 4.6809,0.71314 4.4223,1.5 -0.5014,1.52578 -7.7005,2.00355 -9.9471,0.66016 z m 8.2106,-9.89614 c 0,-0.96643 -2.7738,-4.07143 -3.6372,-4.07143 -1.5448,0 -4.3628,2.28344 -4.3628,3.53518 0,1.04229 1.1538,1.46482 4,1.46482 2.2,0 4,-0.41786 4,-0.92857 z m 6.6667,10.2619 c -1.5766,-1.5766 -0.4498,-2.53996 2.3224,-1.98552 7.0048,1.40097 8.0003,-1.98274 1.5109,-5.13555 -3.4687,-1.68522 -4.5,-2.73413 -4.5,-4.57682 0,-1.3148 0.6436,-2.92469 1.4302,-3.57752 1.8833,-1.56303 8.7865,-0.94908 9.373,0.83361 0.3435,1.04416 -0.2454,1.25709 -2.3593,0.85299 -6.0786,-1.162 -7.6322,2.37818 -1.8771,4.27753 7.5381,2.48779 6.3707,9.97795 -1.5551,9.97795 -2.0231,0 -3.9784,-0.3 -4.345,-0.66667 z m 14,0 c -1.5982,-1.59819 -0.4434,-2.53868 2.4152,-1.96696 3.3305,0.66611 7.3464,-0.86439 6.3783,-2.43083 -0.3278,-0.53027 -2.3099,-1.83852 -4.4047,-2.90723 -4.6274,-2.36071 -5.7023,-4.65614 -3.3813,-7.22074 2.0477,-2.26276 9.3782,-2.1946 10.132,0.0942 0.3568,1.08326 -0.248,1.25986 -2.6613,0.77718 -3.3627,-0.67254 -6.1449,-0.0201 -6.1449,1.44102 0,0.4983 2.0081,1.88162 4.4625,3.07404 5.2397,2.54567 6.1493,4.22337 4.0371,7.44687 -1.2284,1.87484 -2.4305,2.3591 -5.856,2.3591 -2.3706,0 -4.6103,-0.3 -4.9769,-0.66667 z m 15.5333,-0.53333 c -3.4739,-3.47388 0.2355,-8.8 6.1287,-8.8 2.4517,0 3.6713,-0.45763 3.6713,-1.37756 0,-2.40384 -2.5393,-3.66457 -5.9908,-2.97429 -2.556,0.51122 -3.1755,0.347 -2.8154,-0.74636 0.2709,-0.82268 2.1466,-1.52693 4.5402,-1.70471 5.5403,-0.41149 7.266,2.0883 7.266,10.52543 0,4.91332 -0.326,6.27749 -1.5,6.27749 -0.825,0 -1.5,-0.54 -1.5,-1.2 0,-0.93333 -0.2667,-0.93333 -1.2,0 -1.5501,1.55009 -7.0499,1.55009 -8.6,0 z m 7.8,-2.8 c 1.1,-1.1 2,-2.45 2,-3 0,-1.10381 -3.9376,-1.34492 -6.4182,-0.39301 -1.8806,0.72167 -2.1115,4.01262 -0.3318,4.73073 2.1542,0.86924 2.6955,0.7168 4.75,-1.33772 z m 27.9215,2.13747 c -1.9104,-1.54686 -2.4215,-2.90716 -2.4215,-6.44413 0,-5.64692 2.4819,-8.69334 7.0824,-8.69334 3.5683,0 7.4176,3.70261 7.4176,7.13486 0,1.61183 -0.8105,1.86514 -5.9678,1.86514 -5.7671,0 -5.9399,0.0756 -5.1408,2.25 0.671,1.82558 1.7145,2.30799 5.532,2.55741 5.8034,0.37918 5.7454,2.5562 -0.08,2.99171 -2.8182,0.2107 -4.7166,-0.28047 -6.4223,-1.66165 z m 8.0785,-9.51503 c 0,-2.47076 -2.6342,-3.88855 -4.9361,-2.65665 -3.3675,1.80227 -2.573,4.03421 1.4361,4.03421 2.3062,0 3.5,-0.46987 3.5,-1.37756 z m 16,0.37756 V 97.211452 h 5.845 c 4.3926,0 6.2563,0.45443 7.5,1.82874 2.0598,2.276078 2.1506,6.043868 0.1639,6.806218 -1.2591,0.48318 -1.1814,0.96598 0.5,3.10347 4.5462,5.77957 1.0481,10.26157 -8.0089,10.26157 h -6 z m 9.4349,8.02475 c 1.8277,-0.69489 2.5651,-1.70816 2.5651,-3.52475 0,-2.62834 -2.9385,-4.5 -7.0651,-4.5 -1.6265,0 -1.9349,0.71713 -1.9349,4.5 0,4.9162 1.137,5.539 6.4349,3.52475 z m 1.0365,-11.38014 c 3.0435,-2.22547 1.2518,-4.64461 -3.44,-4.64461 -3.8127,0 -4.0314,0.16277 -4.0314,3 0,2.6213 0.3546,3 2.8089,3 1.5449,0 3.643,-0.60993 4.6625,-1.35539 z m 10.7029,12.04094 c -1.5174,-1.61526 -2.1743,-3.5789 -2.1743,-6.5 0,-5.3191 2.6264,-8.18555 7.5,-8.18555 4.9865,0 7.5,2.84862 7.5,8.5 0,3.16667 -0.5926,5.09259 -2,6.5 -2.7854,2.78541 -8.0574,2.63227 -10.8257,-0.31445 z m 8.2543,-1.25698 c 1.6959,-1.69594 2.083,-7.07251 0.6698,-9.30357 -0.479,-0.75625 -2.0983,-1.375 -3.5984,-1.375 -3.209,0 -4.4694,1.62148 -4.4694,5.75 0,3.39723 0.7957,4.94366 2.9694,5.77111 2.3666,0.90087 2.76,0.82602 4.4286,-0.84254 z m 9.6213,-0.84846 3.1741,-4.4199 -2.612,-3.42449 c -2.9761,-3.90193 -3.1892,-4.73572 -1.2102,-4.73572 0.771,0 2.2842,1.3937 3.3628,3.09712 l 1.9609,3.09711 2.2054,-3.09711 c 1.2129,-1.70342 2.9045,-3.09712 3.7592,-3.09712 1.3804,0 1.3711,0.25109 -0.083,2.25 -3.9402,5.41492 -4.0686,6.45571 -1.2516,10.14895 3.0661,4.01994 3.2049,4.60105 1.0984,4.60105 -0.8506,0 -2.3131,-1.34715 -3.25,-2.99368 -2.1266,-3.73723 -2.6583,-3.73792 -4.8626,-0.006 -0.9747,1.65 -2.6031,3 -3.6187,3 -1.5951,0 -1.4144,-0.60176 1.3276,-4.41989 z"
     id="path3809"
     inkscape:connector-curvature="0" />
</svg>
